<svg width="107" height="46" viewBox="0 0 107 46" fill="none" xmlns="http://www.w3.org/2000/svg"><script xmlns="" id="__gaOptOutExtension"/>
<path d="M6.04105 23.3582C5.87943 22.4164 5.67881 21.5024 5.21625 20.7724C4.58651 19.7804 3.48308 19.1061 1.29849 19.0894L1.26505 20.3321C2.03969 20.3098 2.78646 20.3823 3.4162 20.7835C3.95677 21.1235 4.40818 21.6863 4.7537 22.6226C2.85334 21.9761 1.77776 22.1712 1.01427 22.6616C0.618594 22.918 0.306511 23.2579 0 23.6034L0.863803 24.3948C0.913959 24.3223 0.969688 24.2555 1.01427 24.1942C1.93938 23.0963 3.01495 23.1297 4.15183 23.7372C1.69417 24.9242 1.29849 27.0029 1.42667 28.502C1.53813 28.5187 2.63599 28.502 2.63599 28.502C2.53011 27.0419 3.57224 25.0858 5.73454 24.4951L6.05776 23.8319L6.04105 23.3582Z" fill="#8000DB"/>
<path d="M22.2248 10.4905C25.8695 5.43588 27.664 2.92807 26.2261 1.71317C25.2732 0.916242 23.9858 1.47911 21.9071 3.03395C21.8347 4.69468 21.4334 7.0576 20.8984 10.1952L22.2248 10.4905Z" fill="#008298"/>
<path d="M24.5321 40.8018H23.1946C23.1612 42.7133 23.2113 44.6805 21.1716 45.3103C21.2385 45.3158 21.311 45.327 21.389 45.3325C21.6063 45.3548 21.8181 45.3381 22.0243 45.2935C24.56 44.6471 24.4931 42.6966 24.5321 40.8018Z" fill="#580098"/>
<path d="M25.9753 40.8015L24.5654 37.4634H25.8806L24.7771 34.3091H22.9492L23.8019 37.4634H22.7876L23.8743 40.8015H24.5263H25.9753Z" fill="#98005E"/>
<path d="M21.1715 45.3103C23.2112 44.6805 23.1611 42.7244 23.1945 40.8018H18.3516C18.3238 43.6495 19.3492 45.0372 21.1715 45.3103Z" fill="#8000DB"/>
<path d="M22.7821 37.4633H23.7907L22.9437 34.3201L18.0172 34.2979L16.8748 37.5636L18.1231 37.6583L16.8748 40.8014H23.8799L22.7821 37.4633Z" fill="#FF009E"/>
<path d="M12.5668 37.5859L11.2627 34.2756L9.43482 34.27L10.3376 37.519H9.30664L10.4212 40.8906L12.734 40.9129L11.1234 37.5748L12.5668 37.5859Z" fill="#98005E"/>
<path d="M9.29567 37.5081H10.3267L9.42942 34.2591L4.43051 34.2368L3.22119 37.6084L4.49739 37.7032L3.22119 40.8742L10.4047 40.8909L9.29567 37.5081Z" fill="#FF009E"/>
<path d="M20.7033 0.0468511C18.7417 -0.426847 17.5992 2.70513 14.7515 8.8242L20.8984 10.1896C21.4278 7.05201 21.8346 4.68909 21.9071 3.02836C21.9851 1.25617 21.673 0.29206 20.7033 0.0468511Z" fill="#00BEDD"/>
<path d="M24.4595 31.0878L26.0813 31.1936L24.3537 27.744H25.7747L24.493 24.6064H23.3951H22.4421L23.5957 27.744H22.314L23.8688 31.1936L22.4087 31.0878L23.9635 34.32L26.1816 34.3256L24.4595 31.0878Z" fill="#FF9900"/>
<path d="M26.0814 21.3743L24.8888 18.0361H22.5816L23.5625 21.3743H22.1414L23.3897 24.6178H25.8641L24.3427 21.3743H26.0814Z" fill="#008298"/>
<path d="M14.7626 8.83008C14.7515 8.8468 14.7515 8.83008 14.7626 8.83008L12.0319 14.2637L13.5422 14.2971L11.731 18.0365H24.8719L23.1722 17.3176C22.9158 17.2118 22.7598 17.0056 22.8266 16.8662C22.8322 16.8495 22.8434 16.8439 22.8489 16.8328C22.927 16.7213 23.161 16.7046 23.3951 16.7994L23.4675 16.8328L24.6601 17.3399L25.6911 17.7746V11.2654L14.7626 8.83008Z" fill="#FFE001"/>
<path d="M21.3722 15.0269C22.197 15.0269 22.8713 14.3581 22.8713 13.5166C22.8713 12.6862 22.2025 12.0063 21.3722 12.0063C20.5474 12.0063 19.873 12.6751 19.873 13.5166C19.873 14.3581 20.5529 15.0269 21.3722 15.0269ZM21.3722 12.7698C21.7846 12.7698 22.1245 13.1098 22.1245 13.5222C22.1245 13.9346 21.7846 14.2745 21.3722 14.2745C20.9598 14.2745 20.6198 13.9346 20.6198 13.5222C20.6254 13.1098 20.9598 12.7698 21.3722 12.7698Z" fill="white"/>
<path d="M21.4223 14.2686C21.8347 14.2463 22.1468 13.8896 22.1245 13.4717C22.1022 13.0593 21.7455 12.736 21.3276 12.7695C20.9152 12.7918 20.6031 13.1484 20.6254 13.5664C20.6477 13.9788 21.0099 14.2964 21.4223 14.2686Z" fill="black"/>
<path d="M25.68 18.0359V17.7684L23.4564 16.8154L23.384 16.782C23.1499 16.6872 22.927 16.7039 22.8378 16.8154C22.8322 16.821 22.8211 16.8377 22.8155 16.8488C22.7598 16.9882 22.9103 17.1944 23.161 17.3002L24.8608 18.0191H24.8942L25.68 18.0359Z" fill="black"/>
<path d="M22.1525 21.3743H23.5624L22.5872 18.0361H13.3194L11.915 21.3743H13.325L11.9931 24.6066H12.0098V24.6122C12.0432 24.6122 12.0767 24.6122 12.1045 24.6122H22.4311H23.3897L22.1525 21.3743Z" fill="#00BEDD"/>
<path d="M11.9873 24.6065L6.05217 23.8096L4.24097 27.5044H5.44472C5.33326 27.6549 5.20508 27.8276 5.08805 28.006L6.75435 29.572L8.91665 27.5267L11.0232 29.6221L13.1855 27.5769L15.3478 29.6221L17.4544 27.5267L17.5212 27.5936L19.6111 29.5664L21.7734 27.5211L22.5982 28.3348L22.3418 27.7552H23.6236L22.47 24.6121H17.5045H12.0208H12.004" fill="#FFE001"/>
<path d="M22.4143 31.0881L23.8744 31.1829L23.5734 30.5308L21.7511 28.7085L19.6 30.8708L17.4377 28.7085L15.2865 30.8764L13.1744 28.7642L11.0121 30.8095L8.92224 28.7308L6.7711 30.8931L4.61995 28.7419C4.48063 28.976 3.63911 30.4417 3.34375 30.999L4.98776 31.0937L3.52766 34.2368L23.9914 34.326L22.4143 31.0881Z" fill="#FFE001"/>
<path d="M22.5925 28.3238L21.7677 27.499L19.6054 29.5443L17.4431 27.499L15.3421 29.5944L13.1798 27.5492L11.0231 29.5944L8.91655 27.499L6.75426 29.5443L5.08796 27.9783C4.93749 28.2124 4.76473 28.452 4.61426 28.7195L6.7654 30.8706L8.91655 28.7083L11.0064 30.787L13.1687 28.7418L15.2808 30.8539L17.4431 28.6916L19.6054 30.8539L21.7566 28.6916L23.5789 30.514L22.5925 28.3238Z" fill="black"/>
<path d="M9.74685 40.874C9.71341 42.8023 9.76914 44.7751 7.72388 45.4104C7.84648 45.4271 7.97466 45.4438 8.10283 45.4494C8.20872 45.455 8.33133 45.4494 8.43164 45.4271C8.52638 45.4048 8.62669 45.3769 8.71586 45.3546C8.84403 45.3156 8.98336 45.2766 9.09481 45.232C9.17284 45.1986 9.24528 45.1652 9.32888 45.1373C9.37903 45.115 9.42362 45.0871 9.4682 45.0649C9.51278 45.0426 9.55737 45.0147 9.59638 44.9924C9.66325 44.9534 9.72455 44.9144 9.79143 44.8698C9.83044 44.8475 9.86388 44.8141 9.90289 44.7918C9.98091 44.7249 10.0645 44.6636 10.137 44.5912C10.2094 44.5187 10.2818 44.4407 10.3543 44.3571C10.3766 44.3237 10.4045 44.3014 10.4267 44.2679C10.4602 44.2289 10.4825 44.1899 10.5048 44.1453C10.5549 44.0673 10.5995 43.9781 10.6441 43.8945C10.6664 43.8555 10.6831 43.8054 10.711 43.7664C10.7165 43.7441 10.7333 43.7162 10.7444 43.6939C10.7611 43.6605 10.7667 43.6215 10.7834 43.588C10.789 43.5713 10.8001 43.5546 10.8001 43.5323C10.8224 43.4599 10.8503 43.3874 10.867 43.3038C10.867 43.2871 10.8726 43.2704 10.8726 43.2648C10.8893 43.2146 10.8949 43.1701 10.906 43.1199C10.906 43.1143 10.9116 43.0976 10.9116 43.0865C10.9172 43.0307 10.9339 42.975 10.945 42.9081C10.9506 42.8747 10.9506 42.8413 10.9617 42.8134C10.9673 42.78 10.9673 42.7409 10.9785 42.7075C11.0008 42.5403 11.0175 42.3843 11.0286 42.2059C11.0453 41.9942 11.0509 41.7936 11.0509 41.5874C11.0565 41.3589 11.0565 41.1415 11.0676 40.9186L9.74685 40.874Z" fill="#580098"/>
<path d="M4.89302 40.8687C4.88745 41.4259 4.91532 41.9275 4.98776 42.3789C5.01006 42.5572 5.04349 42.7189 5.0825 42.8805C5.10479 42.9864 5.13823 43.0922 5.16052 43.187C5.57849 44.5245 6.44787 45.2267 7.70178 45.4217C9.74704 44.7864 9.69131 42.808 9.72475 40.8854H4.89302V40.8687Z" fill="#8000DB"/>
<path d="M30.5619 14.7314C30.0715 15.9742 28.4442 16.9829 25.6577 17.2281V17.7687V18.0362C25.8528 18.0306 26.02 18.0139 26.2039 18.0027C26.4212 17.986 26.6218 17.9637 26.8225 17.9303C27.0064 17.908 27.1791 17.8746 27.3463 17.8411C28.0987 17.6907 28.7172 17.4566 29.2188 17.1612C29.3247 17.0944 29.4362 17.0331 29.5253 16.9606C29.5755 16.9272 29.6145 16.8937 29.6646 16.8547C29.7928 16.7488 29.921 16.6262 30.0269 16.5148C30.0993 16.4423 30.1551 16.3643 30.2219 16.2751C30.3613 16.0634 30.4727 15.8572 30.534 15.6398C30.6176 15.35 30.6288 15.0435 30.5619 14.7314Z" fill="#98005E"/>
<path d="M26.2765 11.41C26.0814 11.3599 25.8919 11.3041 25.6802 11.2651V12.9593V14.6535V17.2393C28.4555 16.9885 30.0828 15.9743 30.5843 14.7426C30.328 13.4664 28.8958 12.1401 26.2765 11.41Z" fill="#FF009E"/>
<path d="M52.7199 17.1951C53.6728 18.031 54.1577 19.1846 54.1577 20.6726C54.1577 22.155 53.684 23.3086 52.7199 24.1501C51.7669 24.9861 50.4461 25.4096 48.7631 25.4096H45.6757V30.598H42.6106V15.9468H48.7631C50.4461 15.9468 51.7613 16.3647 52.7199 17.1951ZM51.0424 20.6726C51.0424 19.1345 50.1229 18.3654 48.295 18.3654H45.6757V22.9854H48.295C50.1229 22.9854 51.0424 22.2107 51.0424 20.6726Z" fill="black"/>
<path d="M55.6123 16.2812C55.6123 15.1834 56.242 14.6372 57.5015 14.6372C58.761 14.6372 59.3907 15.1834 59.3907 16.2812C59.3907 17.3624 58.761 17.9029 57.5015 17.9029C56.242 17.9029 55.6123 17.3568 55.6123 16.2812ZM59.0062 30.598H55.969V19.4968H59.0062V30.598Z" fill="black"/>
<path d="M71.0772 20.3158C71.8128 21.0068 72.175 22.0099 72.175 23.314V30.5978H69.1378V24.1778C69.1378 22.5115 68.4691 21.67 67.1371 21.67C66.4294 21.67 65.8331 21.9208 65.3371 22.4112C64.8467 22.9128 64.6015 23.6762 64.6015 24.7072V30.5978H61.5642V19.4966H64.2949L64.4064 21.5585C64.7631 20.8006 65.2591 20.2378 65.9167 19.8476C66.5687 19.4631 67.321 19.2681 68.1848 19.2681C69.3719 19.2792 70.3416 19.6247 71.0772 20.3158Z" fill="black"/>
<path d="M85.4887 28.6199L85.3104 30.5091C84.9259 30.7042 84.4466 30.7989 83.867 30.7989C83.215 30.7822 82.6577 30.6484 82.1896 30.3809C81.7214 30.1134 81.4094 29.7289 81.2477 29.2273C80.9078 29.7289 80.4118 30.1246 79.7653 30.4032C79.1133 30.6874 78.4334 30.8212 77.7256 30.8212C76.5721 30.8212 75.6692 30.5648 75.0228 30.0465C74.3763 29.5283 74.0531 28.7871 74.0531 27.8285C74.0531 27.0149 74.3206 26.3461 74.8445 25.8223C75.3683 25.2984 76.1318 24.925 77.1405 24.7244L80.9635 23.9498V23.5318C80.9635 22.9132 80.7852 22.4172 80.4229 22.055C80.0607 21.6927 79.587 21.5144 78.9851 21.5144C77.7702 21.5144 76.9845 22.1163 76.6334 23.3368L74.0364 22.5398C74.3039 21.5311 74.8667 20.7398 75.7194 20.1602C76.5721 19.5806 77.7089 19.2964 79.1133 19.2964C80.6068 19.2964 81.7883 19.6531 82.6688 20.3552C83.5382 21.0574 83.9729 22.0717 83.9729 23.4092V27.8843C83.9729 28.4471 84.2404 28.7313 84.7698 28.7313C85.0317 28.7369 85.2714 28.6923 85.4887 28.6199ZM80.2669 28.1573C80.735 27.8174 80.9691 27.2712 80.9691 26.5133V25.8278L78.6396 26.296C78.0935 26.4019 77.6978 26.5356 77.4637 26.7139C77.2297 26.8923 77.1071 27.1653 77.1071 27.5387C77.1071 27.8954 77.2464 28.1685 77.5083 28.3691C77.7758 28.5697 78.1046 28.67 78.5059 28.67C79.208 28.67 79.7988 28.4917 80.2669 28.1573Z" fill="black"/>
<path d="M94.3887 29.9124C94.0153 30.1966 93.5751 30.4139 93.0401 30.5811C92.5162 30.7427 91.9589 30.8207 91.3626 30.8207C88.8492 30.8207 87.5897 29.7006 87.5897 27.4658V21.7592H85.55V19.491H87.5897V16.933L90.627 16.0859V19.4798H94.1825V21.7536H90.627V26.9754C90.627 28.0008 91.1341 28.508 92.1595 28.508C92.8283 28.508 93.4023 28.2962 93.8927 27.8894L94.3887 29.9124Z" fill="black"/>
<path d="M107 28.6199L106.822 30.5091C106.437 30.7042 105.958 30.7989 105.378 30.7989C104.726 30.7822 104.169 30.6484 103.701 30.3809C103.233 30.1134 102.921 29.7289 102.759 29.2273C102.419 29.7289 101.923 30.1246 101.277 30.4032C100.625 30.6874 99.9446 30.8212 99.2369 30.8212C98.0833 30.8212 97.1805 30.5648 96.534 30.0465C95.8876 29.5283 95.5643 28.7871 95.5643 27.8285C95.5643 27.0149 95.8318 26.3461 96.3557 25.8223C96.8795 25.2984 97.643 24.925 98.6517 24.7244L102.475 23.9498V23.5318C102.475 22.9132 102.296 22.4172 101.934 22.055C101.572 21.6927 101.098 21.5144 100.496 21.5144C99.2815 21.5144 98.4957 22.1163 98.1446 23.3368L95.5476 22.5398C95.8151 21.5311 96.378 20.7398 97.2306 20.1602C98.0833 19.5806 99.2202 19.2964 100.625 19.2964C102.118 19.2964 103.3 19.6531 104.18 20.3552C105.049 21.0574 105.484 22.0717 105.484 23.4092V27.8843C105.484 28.4471 105.752 28.7313 106.281 28.7313C106.543 28.7369 106.783 28.6923 107 28.6199ZM101.778 28.1573C102.246 27.8174 102.48 27.2712 102.48 26.5133V25.8278L100.151 26.296C99.6047 26.4019 99.209 26.5356 98.975 26.7139C98.7409 26.8923 98.6183 27.1653 98.6183 27.5387C98.6183 27.8954 98.7576 28.1685 99.0195 28.3691C99.287 28.5697 99.6158 28.67 100.017 28.67C100.719 28.67 101.31 28.4917 101.778 28.1573Z" fill="black"/>
</svg>