<svg width="36" height="34" viewBox="0 0 36 34" fill="none" xmlns="http://www.w3.org/2000/svg" class="svelte-1qspqf3"><path fill-rule="evenodd" clip-rule="evenodd" d="M18.5687 19.0417C18.8572 18.2253 19.1389 17.3905 19.4228 16.5491C21.8513 9.35112 24.4399 1.67842 32.8537 1.04244C33.2252 1.01436 33.608 0.999997 34.0027 1C33.8296 1.23078 33.6991 1.57621 33.5907 2.00565C33.4423 2.59325 33.3351 3.33814 33.2167 4.16182C32.9561 5.97456 32.6405 8.16891 31.7092 9.90809C29.8743 13.3345 24.8285 15.024 22.3056 14.4765C19.91 17.0735 19.3178 22.4338 19.6913 26.411C19.7597 27.1398 19.9076 27.8537 20.0495 28.5387C20.2456 29.4852 20.4302 30.3765 20.3779 31.1756C20.2485 33.6081 15.8912 33.6081 15.7618 31.1756C15.7095 30.3765 15.8941 29.4852 16.0902 28.5387C16.2321 27.8537 16.38 27.1398 16.4484 26.411C16.4675 26.2077 16.4867 26.0074 16.5057 25.8098C16.851 22.2059 17.1059 19.5453 14.9571 17.3278C14.7314 17.095 14.4792 16.867 14.1979 16.6433C14.0258 16.9617 13.8419 17.2404 13.65 17.4841C12.3774 19.0998 10.747 19.1773 9.79299 19.0722C7.61437 18.8321 6.17 17.0674 4.7655 15.3513C4.19335 14.6522 3.62781 13.9612 3.02196 13.3847C2.73293 13.1097 2.43473 12.8607 2.12225 12.6493C2.50137 12.4981 2.88393 12.3708 3.26863 12.2664C8.84538 10.7528 14.8744 14.0475 17.488 19.1056C17.7066 19.5286 17.9013 19.964 18.0699 20.4099C18.2394 19.9612 18.4052 19.5044 18.5687 19.0417ZM17.9276 17.8531C18.1082 17.3281 18.2871 16.7974 18.4681 16.2608C18.7688 15.3688 19.0751 14.4605 19.4034 13.5352C20.1931 11.3094 21.0827 9.07249 22.24 7.08373C23.3997 5.09089 24.849 3.31009 26.777 2.02993C28.7159 0.742458 31.0812 -2.21724e-05 34.0028 4.96602e-10L36 1.51401e-05L34.7986 1.60152C34.7172 1.71 34.5923 2.01783 34.4627 2.67346C34.3703 3.14034 34.2933 3.67532 34.2058 4.28372C34.1774 4.48175 34.1477 4.68756 34.1161 4.90133C33.8683 6.5769 33.5108 8.656 32.5867 10.3815C31.5278 12.359 29.5921 13.7639 27.6601 14.6007C25.9891 15.3244 24.1674 15.6886 22.7093 15.5483C21.8724 16.6529 21.2826 18.2584 20.9395 20.1091C20.5575 22.1692 20.504 24.4096 20.6831 26.3172C20.7459 26.9858 20.8806 27.6368 21.0222 28.3216C21.05 28.4558 21.078 28.5913 21.1058 28.7285C21.2666 29.5219 21.4262 30.3985 21.3724 31.2354C21.3203 32.1765 20.8453 32.8995 20.1952 33.3606C19.5677 33.8056 18.7957 34 18.0699 34C17.344 34 16.572 33.8056 15.9446 33.3606C15.2944 32.8995 14.8193 32.1764 14.7673 31.2353C14.7135 30.3984 14.8731 29.5219 15.0339 28.7285C15.0617 28.5913 15.0897 28.4558 15.1175 28.3216C15.2591 27.6368 15.3938 26.9858 15.4566 26.3172C15.475 26.1207 15.4933 25.9286 15.5113 25.7404C15.6955 23.8092 15.8394 22.3004 15.6535 20.9804C15.5062 19.9343 15.1504 19.0223 14.3789 18.1701C13.7456 18.9517 13.02 19.4494 12.2823 19.7434C11.2786 20.1434 10.3271 20.1371 9.68428 20.0662C7.5339 19.8293 6.04107 18.3873 4.8627 17.0257C4.56533 16.6821 4.2767 16.3294 3.9997 15.991L3.99119 15.9806C3.70843 15.6351 3.4379 15.3048 3.16528 14.9905C2.61589 14.3573 2.10048 13.8405 1.56544 13.4785L0 12.4195L1.75443 11.7199C7.89421 9.27172 14.7119 12.5328 17.9276 17.8531Z" fill="url(#paint0_radial)" fill-opacity="0.84" class="svelte-1qspqf3"></path><defs class="svelte-1qspqf3"><radialGradient id="paint0_radial" cx="0" cy="0" r="1" gradientUnits="userSpaceOnUse" gradientTransform="translate(14.6116 21.5361) rotate(67.3618) scale(26.8971 26.8264)" class="svelte-1qspqf3"><stop stop-color="#5555FF" class="svelte-1qspqf3"></stop><stop offset="1" stop-color="#FF55FF" class="svelte-1qspqf3"></stop></radialGradient></defs></svg>
