<?xml version="1.0" encoding="UTF-8" standalone="no"?>
<svg
   width="32vw"
   viewBox="0 0 237 33"
   fill="none"
   version="1.1"
   id="svg28"
   sodipodi:docname="radicle_drips_banner.svg"
   inkscape:version="1.1.2 (0a00cf5339, 2022-02-04)"
   xmlns:inkscape="http://www.inkscape.org/namespaces/inkscape"
   xmlns:sodipodi="http://sodipodi.sourceforge.net/DTD/sodipodi-0.dtd"
   xmlns="http://www.w3.org/2000/svg"
   xmlns:svg="http://www.w3.org/2000/svg">
  <defs
     id="defs32" />
  <sodipodi:namedview
     id="namedview30"
     pagecolor="#505050"
     bordercolor="#eeeeee"
     borderopacity="1"
     inkscape:pageshadow="0"
     inkscape:pageopacity="0"
     inkscape:pagecheckerboard="0"
     showgrid="false"
     inkscape:zoom="5.3164557"
     inkscape:cx="118.5"
     inkscape:cy="16.552381"
     inkscape:window-width="2172"
     inkscape:window-height="2136"
     inkscape:window-x="512"
     inkscape:window-y="22"
     inkscape:window-maximized="1"
     inkscape:current-layer="svg28" />
  <path
     d="M45.3829 15.2405V4.66693H49.8952V28.843H45.3829V27.4775C45.2564 27.5392 45.2051 27.5507 45.1716 27.5821C43.4793 29.1556 41.4627 29.5508 39.2902 29.0228C36.4253 28.3275 34.7016 26.3849 33.9935 23.5943C33.2749 20.763 33.7581 18.1241 35.6963 15.85C37.7348 13.4579 41.3308 12.7803 44.0179 14.2807C44.4666 14.5306 44.8662 14.8725 45.3829 15.2405ZM45.5325 21.5649C45.5356 20.7923 45.4394 20.2058 45.2051 19.6579C44.6549 18.3708 43.6884 17.5846 42.2848 17.433C40.9606 17.2898 39.8331 17.7299 39.0339 18.8162C38.0926 20.096 37.9827 21.5168 38.5193 22.9817C39.2598 25.0027 41.6017 25.9092 43.5148 24.919C44.9373 24.1841 45.4603 22.9106 45.5325 21.5649Z"
     id="path2"
     style="fill:#000000;fill-opacity:1" />
  <path
     d="M26.12 15.2239V13.8793H30.5978L30.6511 28.8525L26.1441 28.8807C26.1441 28.8807 26.1441 27.9722 26.1441 27.4411C24.9415 28.3796 23.7706 29.0863 22.1976 29.2028C18.5326 29.4715 15.855 27.0824 14.9492 24.271C13.9639 21.2107 14.3499 18.3417 16.4731 15.8345C18.4918 13.4528 22.0774 12.7868 24.7498 14.2662C25.2142 14.5223 25.6242 14.8737 26.12 15.2239ZM19.2889 22.9892C19.8097 24.3369 20.8128 25.1398 22.2604 25.2841C23.6735 25.4253 24.8199 24.9014 25.6232 23.7074C26.6085 22.2426 26.4934 20.0355 25.3721 18.671C24.004 17.0044 21.3494 16.9783 19.9446 18.6156C18.842 19.9016 18.7009 21.4605 19.2889 22.9892Z"
     id="path4"
     style="fill:#000000;fill-opacity:1" />
  <path
     d="M96.1364 25.2296H101.484V28.8399H86.2353V25.2296H91.5436V8.30755H86.2353V4.71978H96.1364V25.2296Z"
     id="path6"
     style="fill:#000000;fill-opacity:1" />
  <path
     d="M106.355 22.5115C106.519 24.3784 108.138 25.6854 109.974 25.7006C111.227 25.711 112.509 25.2677 113.088 24.095H117.148C116.994 24.5351 116.894 24.9418 116.714 25.3089C115.425 27.9547 112.583 29.3333 109.711 29.2547C105.438 29.1377 102.104 25.7058 102.108 21.3879C102.111 17.2176 105.454 13.5772 109.711 13.4963C111.799 13.4565 113.625 14.1928 114.974 15.4772C116.857 17.2712 117.601 19.969 117.382 22.5115H106.355ZM112.997 19.6776C112.881 18.2549 111.281 17.2116 109.974 17.1817C108.403 17.1456 106.99 18.1904 106.526 19.6776H112.997Z"
     id="path8"
     style="fill:#000000;fill-opacity:1" />
  <path
     d="M85.2634 19.5149H80.7313C80.7313 19.5149 80.0464 17.439 77.7039 17.439C75.5311 17.4898 74.2086 19.4387 74.205 21.4537C74.2016 23.3874 75.6225 25.2186 77.6354 25.2769C79.2033 25.3224 80.2631 24.3892 80.7651 23.2098H85.293C84.8658 26.8537 81.1862 29.2774 77.7039 29.2371C73.394 29.1872 69.6972 25.6955 69.7162 21.3364C69.7352 16.979 73.4226 13.5181 77.7039 13.4825C81.241 13.4825 84.9483 15.935 85.2634 19.5149Z"
     id="path10"
     style="fill:#000000;fill-opacity:1" />
  <path
     d="M58.8508 17.4821H53.5929V13.8781H63.4892V25.2254H68.7707V28.8429H53.5929V25.2254H58.8508V17.4821Z"
     id="path12"
     style="fill:#000000;fill-opacity:1" />
  <path
     d="M12.1656 13.8762V17.4938H4.54574V28.817H0V13.8762H12.1656Z"
     id="path14"
     style="fill:#000000;fill-opacity:1" />
  <path
     d="M60.7756 10.3139C59.0907 10.3171 57.7757 9.01852 57.7788 7.35611C57.7819 5.72402 59.0886 4.42337 60.7387 4.40977C62.4221 4.39618 63.7501 5.68847 63.7573 7.34565C63.7656 9.01643 62.4647 10.3108 60.7756 10.3139Z"
     id="path16"
     style="fill:#000000;fill-opacity:1" />
  <path
     d="M132.467 16.1451C132.467 12.6874 135.279 11.8114 138.46 11.8114C144.316 11.8114 147.082 13.1484 147.082 16.2835C147.082 20.8016 144.27 22.6458 138.23 22.6458C135.141 22.6458 132.467 21.401 132.467 16.1451ZM137.723 31.6821C146.298 31.6821 148.834 26.6107 148.695 16.099C148.834 6.18673 146.16 1.25362 137.446 1.25362C130.438 1.25362 127.718 3.14388 127.58 6.92439C127.488 11.627 130.946 12.8718 130.946 16.1451C130.946 18.727 127.534 21.7698 127.626 25.7347C127.764 29.2847 130.669 31.6821 137.723 31.6821Z"
     id="path18"
     style="fill:#000000;fill-opacity:1" />
  <path
     d="M173.662 9.4601C173.662 3.09778 169.098 1.25362 161.951 1.25362C154.759 1.25362 151.578 3.88154 151.44 7.56984C151.394 11.627 154.437 13.3789 154.437 16.099C154.437 18.8653 151.532 22.0003 151.624 26.6568C151.716 29.9763 153.791 31.5899 156.88 31.5899C160.384 31.5899 162.689 29.7458 162.689 27.5328C162.689 24.2133 158.079 22.9685 158.079 20.8016C158.079 20.1562 158.355 19.5107 159.739 19.5107C162.505 19.5107 164.718 21.6315 164.856 24.6743C165.04 28.5932 166.562 31.5899 170.204 31.5899C173.339 31.5899 174.999 29.7458 174.999 25.8269C174.999 23.1068 173.754 20.7094 170.988 20.7094C170.02 20.7094 168.083 21.0782 166.377 21.0782C164.948 21.0782 164.349 20.6633 164.349 20.1101C164.349 19.4646 164.764 19.2802 165.916 18.9575C170.619 17.8049 173.662 16.0529 173.662 9.4601ZM156.096 15.7763C156.096 13.1023 159.877 12.5029 162.735 12.5029C167.714 12.5029 169.328 13.3789 169.328 15.1309C169.328 17.436 166.009 18.5886 162.274 18.5886C157.433 18.5886 156.096 17.436 156.096 15.7763Z"
     id="path20"
     style="fill:#000000;fill-opacity:1" />
  <path
     d="M183.389 1.20752C179.793 1.20752 177.073 2.49842 176.981 6.27893C176.889 12.4107 182.467 11.6731 182.467 16.4679C182.467 21.2166 176.889 20.4789 176.981 26.6107C177.119 30.4373 179.793 31.636 183.389 31.636C186.985 31.636 189.705 30.4373 189.798 26.6107C189.89 20.4789 184.311 21.2166 184.311 16.4679C184.311 11.6731 189.89 12.4107 189.798 6.27893C189.705 2.49842 186.985 1.20752 183.389 1.20752Z"
     id="path22"
     style="fill:#000000;fill-opacity:1" />
  <path
     d="M209.043 24.6743C211.21 24.6743 212.962 23.3373 213.101 21.0782C213.285 18.1737 210.15 17.2516 210.15 14.7159C210.15 11.4426 213.193 9.87503 213.055 6.87828C212.87 2.63674 207.845 1.25362 202.451 1.25362C195.258 1.25362 192.031 3.88154 191.939 7.56984C191.847 11.6731 194.936 13.3789 194.936 16.099C194.936 18.8653 192.031 22.0003 192.123 26.7029C192.216 29.9302 194.29 31.4055 197.379 31.4055C201.021 31.4055 203.188 29.6535 203.188 27.5789C203.188 24.3516 198.624 23.1529 198.624 21.0321C198.624 20.3867 198.901 19.7412 199.869 19.7412C202.727 19.7412 205.263 24.6743 209.043 24.6743ZM196.595 15.8685C196.595 13.1484 200.376 12.549 203.234 12.549C207.245 12.549 208.49 13.5633 208.49 15.5919C208.49 17.9893 205.816 18.6808 202.773 18.6808C197.932 18.6808 196.595 17.4822 196.595 15.8685Z"
     id="path24"
     style="fill:#000000;fill-opacity:1" />
  <path
     d="M231.357 19.9257C231.357 21.5393 230.251 22.2308 228.776 22.2308C225.318 22.2308 223.658 19.7873 220.062 19.7873C216.973 19.7873 215.359 21.7698 215.359 24.7204C215.359 28.962 217.711 31.5899 225.087 31.5899C232.879 31.5899 235.553 28.3626 235.553 23.2912C235.553 18.0815 232.648 16.099 226.609 15.8224C222.736 15.5458 219.739 14.5315 219.739 12.4568C219.739 10.9354 220.892 10.1517 222.459 10.1517C225.917 10.1517 227.623 13.0101 230.989 13.0101C233.709 13.0101 235.184 11.0276 235.184 8.03088C235.184 3.83543 232.51 1.39194 225.548 1.39194C218.356 1.39194 216.005 4.94193 216.005 9.5523C216.005 15.1309 219.463 16.5601 225.871 16.9289C229.836 17.1594 231.357 18.0815 231.357 19.9257Z"
     id="path26"
     style="fill:#000000;fill-opacity:1" />
</svg>
