<?xml version="1.0" encoding="UTF-8" standalone="no"?>
<!-- Generator: Adobe Illustrator 16.0.4, SVG Export Plug-In . SVG Version: 6.00 Build 0)  -->

<svg
   version="1.1"
   id="ETH"
   x="0px"
   y="0px"
   width="140.70599"
   height="22.861"
   viewBox="0 0 140.706 22.861001"
   enable-background="new 0 0 186.066 68.032"
   xml:space="preserve"
   sodipodi:docname="eth_logo_kurz_neg.svg"
   inkscape:version="1.1.2 (0a00cf5339, 2022-02-04)"
   xmlns:inkscape="http://www.inkscape.org/namespaces/inkscape"
   xmlns:sodipodi="http://sodipodi.sourceforge.net/DTD/sodipodi-0.dtd"
   xmlns="http://www.w3.org/2000/svg"
   xmlns:svg="http://www.w3.org/2000/svg"><defs
   id="defs31" /><sodipodi:namedview
   id="namedview29"
   pagecolor="#505050"
   bordercolor="#eeeeee"
   borderopacity="1"
   inkscape:pageshadow="0"
   inkscape:pageopacity="0"
   inkscape:pagecheckerboard="0"
   showgrid="false"
   fit-margin-top="0"
   fit-margin-left="0"
   fit-margin-right="0"
   fit-margin-bottom="0"
   inkscape:zoom="7.2820628"
   inkscape:cx="60.285116"
   inkscape:cy="14.968286"
   inkscape:window-width="1888"
   inkscape:window-height="2136"
   inkscape:window-x="1052"
   inkscape:window-y="22"
   inkscape:window-maximized="1"
   inkscape:current-layer="ETH" />
<g
   id="g26"
   transform="translate(-22.681,-22.677)">
	<g
   id="g20">
		<path
   fill="#ffffff"
   d="m 109.18,39.305 c -0.81,4.017 -3.913,4.221 -4.528,4.221 -1.752,0 -2.797,-1.012 -2.797,-2.705 0,-0.386 0.057,-0.912 0.155,-1.439 l 1.919,-9.562 0.008,-0.037 h -2.267 l -1.956,9.805 -0.026,0.14 c -0.084,0.443 -0.163,0.863 -0.163,1.408 0,2.634 1.73,4.402 4.309,4.402 1.886,0 3.401,-0.619 4.507,-1.841 l -0.294,1.615 -0.007,0.038 h 2.235 l 3.088,-15.53 0.006,-0.037 h -2.299 z"
   id="path2" />
		<path
   fill="#ffffff"
   d="m 124.635,29.595 c -1.752,0 -3.304,0.716 -4.281,1.974 l 0.351,-1.748 0.007,-0.037 h -2.235 l -3.089,15.529 -0.007,0.038 h 2.269 l 1.891,-9.524 c 0.483,-2.445 2.36,-4.218 4.465,-4.218 0.904,0 1.616,0.356 2.176,1.087 l 0.021,0.028 1.841,-1.649 -0.019,-0.023 c -0.851,-0.982 -1.961,-1.457 -3.39,-1.457 z"
   id="path4" />
		<polygon
   fill="#ffffff"
   points="94.878,31.797 84.579,43.442 84.574,43.448 84.186,45.351 95.164,45.351 95.554,43.337 87.348,43.337 97.679,31.692 97.684,31.685 98.071,29.784 87.534,29.784 87.149,31.759 87.143,31.797 "
   id="polygon6" />
		<polygon
   fill="#ffffff"
   points="130.591,45.351 133.684,29.784 131.455,29.784 128.332,45.313 128.324,45.351 "
   id="polygon8" />
		<path
   fill="#ffffff"
   d="m 159.072,29.596 c -1.865,0 -3.321,0.571 -4.44,1.75 l 1.759,-8.668 h -2.268 l -4.555,22.676 h 2.268 l 1.891,-9.525 c 0.811,-4.015 3.941,-4.218 4.56,-4.218 1.733,0 2.769,1.011 2.769,2.704 0,0.384 -0.059,0.908 -0.158,1.44 l -1.924,9.6 h 2.266 l 1.988,-9.809 c 0.096,-0.521 0.159,-0.962 0.159,-1.547 -0.002,-2.634 -1.738,-4.403 -4.315,-4.403 z"
   id="path10" />
		<path
   fill="#ffffff"
   d="m 144.041,29.595 c -4.113,0 -7,2.897 -7.923,7.949 -0.166,0.846 -0.224,1.792 -0.224,2.397 0,3.452 2.096,5.597 5.472,5.597 1.963,0 3.755,-0.752 5.181,-2.177 l 0.021,-0.021 -1.308,-1.595 -0.023,-0.028 -0.024,0.027 c -1.203,1.266 -2.281,1.783 -3.721,1.783 -1.609,0 -3.33,-0.958 -3.33,-3.648 0,-0.842 0.1,-1.538 0.249,-2.322 0.243,-1.32 0.79,-3.164 2.005,-4.447 0.966,-0.996 2.111,-1.5 3.406,-1.5 1.352,0 2.197,0.481 3.021,1.715 l 0.02,0.031 1.664,-1.406 0.023,-0.02 -0.018,-0.025 c -1.136,-1.599 -2.522,-2.31 -4.491,-2.31 z"
   id="path12" />
		<polygon
   fill="#ffffff"
   points="135.133,22.677 132.869,22.677 132.296,25.512 134.568,25.512 "
   id="polygon14" />
		<polygon
   fill="#ffffff"
   points="113.084,22.677 110.823,22.677 110.249,25.512 112.522,25.512 "
   id="polygon16" />
		<polygon
   fill="#ffffff"
   points="107.039,22.677 104.777,22.677 104.203,25.512 106.475,25.512 "
   id="polygon18" />
	</g>
	<g
   id="g24">
		<polygon
   fill="#ffffff"
   points="70.6,22.677 27.235,22.677 22.681,45.353 39.971,45.353 41.104,39.685 30.895,39.685 31.514,36.567 41.719,36.567 42.747,31.464 32.539,31.464 33.157,28.345 49.337,28.345 45.921,45.353 53.008,45.353 56.424,28.345 62.374,28.345 58.958,45.353 66.046,45.353 67.795,36.567 72.896,36.567 71.146,45.353 78.233,45.353 82.789,22.677 75.702,22.677 73.91,31.464 68.809,31.464 "
   id="polygon22" />
	</g>
</g>
</svg>
